SplineFontDB: 3.0
FontName: BulmerStM
FullName: Sorts Mill Bulmer
FamilyName: Sorts Mill Bulmer
Weight: Regular
Copyright: Created by trashman with FontForge 2.0 (http://fontforge.sf.net)
UComments: "2011-1-31: Created." 
Version: 0.1
ItalicAngle: 0
UnderlinePosition: -100
UnderlineWidth: 50
Ascent: 800
Descent: 200
LayerCount: 3
Layer: 0 0 "Back"  1
Layer: 1 0 "Fore"  0
Layer: 2 0 "backup"  0
NeedsXUIDChange: 1
XUID: [1021 658 797806517 5297306]
FSType: 0
OS2Version: 0
OS2_WeightWidthSlopeOnly: 0
OS2_UseTypoMetrics: 1
CreationTime: 1296525662
ModificationTime: 1296724224
OS2TypoAscent: 0
OS2TypoAOffset: 1
OS2TypoDescent: 0
OS2TypoDOffset: 1
OS2TypoLinegap: 90
OS2WinAscent: 0
OS2WinAOffset: 1
OS2WinDescent: 0
OS2WinDOffset: 1
HheadAscent: 0
HheadAOffset: 1
HheadDescent: 0
HheadDOffset: 1
OS2Vendor: 'PfEd'
MarkAttachClasses: 1
DEI: 91125
Encoding: UnicodeBmp
UnicodeInterp: none
NameList: Adobe Glyph List
DisplaySize: -48
AntiAlias: 1
FitToEm: 1
WinInfo: 96 12 6
BeginPrivate: 8
BlueValues 7 [-18 0]
BlueFuzz 1 0
BlueScale 8 0.039625
BlueShift 1 7
StdHW 4 [44]
StemSnapH 32 [11 27 31 37 44 48 52 60 91 113]
StdVW 4 [85]
StemSnapV 14 [80 85 90 168]
EndPrivate
BeginChars: 65536 63

StartChar: a
Encoding: 97 97 0
Width: 395
VWidth: 0
Flags: W
LayerCount: 3
Fore
SplineSet
128 -10 m 0
 72 -10 36 29 36 75 c 0
 36 189 195 218 239 228 c 1
 239 275 l 2
 239 321 233 360 170 360 c 0
 146 360 123 353 119 327 c 0
 117 308 113 276 76 276 c 0
 54 276 38 292 38 313 c 0
 38 360 115 384 165 384 c 0
 207 384 242 380 274 362 c 0
 321 336 322 300 322 247 c 2
 322 84 l 2
 322 58 324 36 341 36 c 0x7c
 352 36 358 43 363 48 c 0
 365 50 368 52 370 52 c 0
 373 52 385 48 385 33 c 0
 385 15 365 -10 319 -10 c 0x7c
 277 -10 252 19 242 39 c 0
 240 41 238 46 236 46 c 0
 232 46 228 41 225 38 c 0
 203 18 174 -10 128 -10 c 0
180 46 m 0xbc
 195 46 215 56 226 69 c 0
 238 83 239 93 239 122 c 2
 239 205 l 1
 175 192 121 168 121 113 c 0
 121 77 137 46 180 46 c 0xbc
EndSplineSet
EndChar

StartChar: b
Encoding: 98 98 1
Width: 470
VWidth: 0
Flags: WO
HStem: -10 34<195.996 303.537> 1 32<23.0088 68.3467> 358 28<211.728 305.245> 605 31<26.0089 66.125>
VStem: 79 79<57.6135 318.349 327 598.469> 362 93<99.6765 280.252>
LayerCount: 3
Fore
SplineSet
362 189 m 0xbc
 362 273 341 358 254 358 c 0
 222 358 187 332 177 314 c 0
 163 288 158 244 158 207 c 2
 158 126 l 2
 158 120 163 66 194 41 c 0
 206 32 234 24 253 24 c 0
 335 24 362 120 362 189 c 0xbc
265 -10 m 0
 188 -10 164 36 156 42 c 1
 154 9 156 -5 147 -5 c 0
 127 -5 122 1 100 1 c 2
 50 1 l 2
 35 1 23 2 23 16 c 0
 23 28 24 32 34 33 c 0x7c
 45 34 55 35 69 36 c 1
 74 45 79 57 79 87 c 2
 79 237 l 2
 79 327 80 444 80 521 c 0
 80 537 78 595 70 597 c 2
 39 605 l 2
 29 608 26 611 26 621 c 0
 26 629 27 634 41 636 c 0
 85 642 105 647 141 652 c 1
 148 652 l 2
 162 652 163 642 163 637 c 0
 163 611 155 468 155 394 c 2
 155 327 l 1
 202 382 245 386 282 386 c 0
 302 386 348 374 379 349 c 0
 419 317 455 258 455 195 c 0
 455 77 367 -10 265 -10 c 0
EndSplineSet
EndChar

StartChar: h
Encoding: 104 104 2
Width: 510
VWidth: 0
Flags: W
LayerCount: 3
Fore
SplineSet
298 1 m 0xf4
 283 1 283 4 283 19 c 0
 283 31 291 34 300 34 c 2
 333 34 l 2
 341 34 341 142 341 174 c 2
 341 254 l 2
 341 316 319 349 276 349 c 0
 241 349 219 339 201 323 c 0
 183 307 179 302 175 284 c 0
 171 268 170 253 170 249 c 0
 170 205 168 152 168 103 c 0
 168 91 168 35 177 35 c 0
 182 35 205 35 214 33 c 0
 222 31 223 25 223 19 c 0
 223 3 220 1 205 1 c 0
 131 0 56 -2 53 -2 c 0
 35 -2 28 2 28 18 c 0
 28 32 35 37 49 37 c 2
 75 37 l 2
 80 37 81 45 82 56 c 0xf4
 87 130 95 502 95 564 c 0xec
 95 583 91 610 88 610 c 0xf4
 85 610 58 606 55 606 c 0
 40 606 35 606 35 620 c 0
 35 630 40 635 50 636 c 0
 91 640 155 653 166 653 c 0
 177 653 181 642 181 637 c 2
 181 637 172 569 170 319 c 1
 192 342 236 379 305 379 c 0
 374 379 425 336 425 284 c 0
 425 234 424 162 424 114 c 0
 424 84 424 36 432 36 c 2
 462 36 l 1
 478 35 483 31 483 18 c 0
 483 4 480 0 464 0 c 0
 419 0 342 1 298 1 c 0xf4
EndSplineSet
EndChar

StartChar: c
Encoding: 99 99 3
Width: 432
VWidth: -5
Flags: W
LayerCount: 3
Fore
SplineSet
245 390 m 0
 311 390 388 367 388 303 c 0
 388 276 371 262 347 262 c 0
 329 262 316 277 316 295 c 0
 316 303 318 315 318 324 c 0
 318 348 288 365 254 365 c 0
 176 365 132 289 132 189 c 0
 132 106 178 37 252 37 c 0
 283 37 322 46 346 80 c 0
 358 97 360 107 367 107 c 0
 378 107 388 100 388 95 c 0
 388 90 384 79 382 75 c 0
 361 27 301 -11 229 -11 c 0
 119 -11 37 69 37 189 c 0
 37 280 133 390 245 390 c 0
EndSplineSet
Layer: 2
SplineSet
245 390 m 4
 307 390 388 368 388 304 c 4
 388 277 371 263 347 263 c 4
 329 263 316 278 316 296 c 4
 316 304 318 315 318 324 c 4
 318 348 288 366 254 366 c 4
 174 366 131 289 131 189 c 4
 131 106 178 37 252 37 c 4
 283 37 321 45 344 80 c 4
 351 91 360 107 370 107 c 4
 381 107 386 99 386 91 c 4
 386 86 385 81 383 77 c 4
 365 31 303 -10 229 -10 c 4
 119 -10 37 69 37 189 c 4
 37 280 133 390 245 390 c 4
EndSplineSet
EndChar

StartChar: d
Encoding: 100 100 4
Width: 496
VWidth: -1
Flags: W
LayerCount: 3
Fore
SplineSet
286 609 m 0xbc
 279 609 276 616 276 629 c 0
 276 639 279 643 285 644 c 0
 361 651 391 660 405 660 c 0
 414 660 422 656 422 643 c 0
 422 606 416 528 416 463 c 2
 415 190 l 2
 415 164 417 137 419 94 c 0
 420 75 421 56 435 41 c 1
 441 39 458 38 470 35 c 0
 474 34 477 32 477 29 c 2
 477 19 l 2
 477 10 474 7 457 6 c 0x7c
 400 2 358 -6 354 -6 c 0
 345 -6 339 41 337 57 c 1
 318 24 264 -11 216 -11 c 0
 106 -11 35 59 35 183 c 0
 35 292 110 383 218 383 c 0
 272 383 310 365 340 337 c 1
 340 426 l 2
 340 535 336 577 336 590 c 0
 336 598 330 611 326 611 c 0
 318 611 296 609 286 609 c 0xbc
236 28 m 0xbc
 311 28 340 73 340 168 c 2
 340 256 l 2
 340 313 311 355 236 355 c 0
 161 355 121 266 121 178 c 0
 121 93 171 28 236 28 c 0xbc
EndSplineSet
EndChar

StartChar: e
Encoding: 101 101 5
Width: 407
VWidth: 0
Flags: W
LayerCount: 3
Fore
SplineSet
352 118 m 0
 360 118 378 112 378 106 c 0
 378 89 366 64 352 46 c 0
 324 10 277 -14 217 -14 c 0
 98 -14 34 77 34 175 c 0
 34 285 108 389 221 389 c 0
 307 389 368 325 368 253 c 0
 368 240 364 238 358 235 c 0
 354 233 344 231 336 231 c 0
 322 231 262 232 126 234 c 1
 125 223 124 212 124 202 c 0
 124 106 177 39 246 39 c 0
 290 39 318 58 335 88 c 0
 343 101 345 118 352 118 c 0
291 267 m 1
 291 270 291 273 291 276 c 0
 291 328 261 357 221 357 c 0
 176 357 144 321 132 261 c 1
 192 261 230 263 291 267 c 1
EndSplineSet
Layer: 2
SplineSet
212 -14 m 4
 104 -14 34 69 34 175 c 4
 34 285 107 388 223 388 c 4
 292 388 367 337 367 254 c 4
 367 233 355 231 345 231 c 4
 331 231 262 233 126 235 c 5
 124 222 124 213 124 198 c 4
 124 107 182 39 247 39 c 4
 290 39 318 60 335 88 c 4
 343 101 346 117 358 117 c 4
 371 117 375 106 375 95 c 4
 375 78 361 56 354 48 c 4
 320 7 269 -14 212 -14 c 4
288 266 m 5
 289 273 290 279 290 285 c 4
 290 331 256 358 221 358 c 4
 176 358 142 321 135 261 c 5
 195 261 257 265 288 266 c 5
EndSplineSet
EndChar

StartChar: f
Encoding: 102 102 6
Width: 282
VWidth: 3
Flags: W
LayerCount: 3
Fore
SplineSet
317 535 m 0
 285 535 273 555 273 580 c 0
 273 590 274 599 274 606 c 0
 274 615 271 620 258 620 c 0
 165 620 177 480 175 364 c 1
 233 365 l 2
 240 365 244 359 244 347 c 0
 244 332 241 330 220 330 c 2
 175 329 l 1
 175 170 l 2
 175 100 176 35 180 35 c 0
 194 35 214 34 223 34 c 0
 235 34 237 28 237 16 c 0
 237 2 232 -1 221 -1 c 0
 174 -1 183 1 134 1 c 0
 86 1 64 -1 59 -1 c 0
 51 -1 44 0 44 15 c 0
 44 30 45 35 62 35 c 2
 82 35 l 2
 94 35 95 155 95 246 c 0
 95 278 94 304 94 329 c 1
 62 329 l 2
 59 329 47 330 47 342 c 0
 47 357 49 364 64 364 c 0
 65 364 66 364 67 364 c 2
 93 362 l 1
 93 455 l 2
 93 569 155 645 268 645 c 0
 321 645 361 622 361 583 c 0
 361 554 341 535 317 535 c 0
EndSplineSet
EndChar

StartChar: g
Encoding: 103 103 7
Width: 426
VWidth: 0
Flags: W
LayerCount: 3
Fore
SplineSet
265 348 m 0xeb
 271 348 304 385 350 385 c 0
 376 385 410 369 410 333 c 0
 410 307 395 300 380 300 c 0
 354 300 344 319 335 340 c 0
 333 345 327 354 319 354 c 0
 304 354 281 338 281 334 c 0
 281 328 319 285 319 237 c 0
 319 166 278 129 224 113 c 0
 206 108 187 107 168 104 c 0
 146 101 119 96 119 69 c 0xe7
 119 37 148 32 184 32 c 2
 262 32 l 2
 352 32 410 -5 410 -104 c 0
 410 -224 291 -265 216 -265 c 0
 128 -265 22 -231 22 -134 c 0xf3
 22 -61 77 -40 125 -37 c 1
 94 -24 73 -7 73 38 c 0xe7
 73 78 113 107 124 111 c 1
 111 117 26 136 26 239 c 0
 26 319 95 379 171 379 c 0
 228 379 263 348 265 348 c 0xeb
242 228 m 0
 242 277 233 356 180 356 c 0
 122 356 109 284 109 216 c 0xeb
 109 171 131 127 175 127 c 0
 223 127 242 176 242 228 c 0
90 -140 m 0xf3
 90 -205 150 -230 214 -230 c 0
 282 -230 348 -192 348 -126 c 0
 348 -63 280 -57 252 -55 c 2
 252 -55 196 -54 164 -50 c 1
 161 -56 156 -62 147 -64 c 0
 136 -66 125 -68 115 -76 c 0
 103 -85 90 -103 90 -140 c 0xf3
EndSplineSet
EndChar

StartChar: i
Encoding: 105 105 8
Width: 268
VWidth: -2
Flags: W
LayerCount: 3
Fore
SplineSet
196 602 m 0xf0
 196 565 174 543 147 543 c 0
 115 543 91 562 91 597 c 0
 91 629 117 652 143 652 c 0
 164 652 196 636 196 602 c 0xf0
94 32 m 0
 101 32 104 125 104 155 c 2
 104 233 l 2
 104 262 103 301 101 324 c 0
 100 333 99 338 94 338 c 0
 88 338 64 337 61 337 c 0
 52 337 47 340 47 353 c 0
 47 363 50 368 62 368 c 2
 86 368 l 2
 102 368 163 375 180 375 c 0
 190 375 191 364 191 358 c 0
 188 278 186 224 186 83 c 0xe8
 186 60 186 34 196 34 c 2
 230 34 l 2
 243 34 247 25 247 16 c 0
 247 3 244 0 230 0 c 2
 141 0 l 2
 110 0 77 -1 56 -2 c 0
 53 -2 42 1 42 15 c 0
 42 26 45 33 60 33 c 0
 67 33 78 32 94 32 c 0
EndSplineSet
EndChar

StartChar: j
Encoding: 106 106 9
Width: 287
VWidth: 2
Flags: W
LayerCount: 3
Fore
SplineSet
151 655 m 0x9c
 177 655 201 636 201 604 c 0
 201 569 177 547 151 547 c 0
 121 547 98 568 98 601 c 0
 98 632 121 655 151 655 c 0x9c
70 363 m 0xba
 146 374 154 377 187 382 c 0
 190 382 197 377 197 367 c 0
 197 358 195 294 195 204 c 0
 195 173 196 117 196 63 c 2
 196 10 l 1
 194 -44 196 -111 181 -144 c 0
 155 -202 96 -237 14 -237 c 0
 -31 -237 -76 -221 -76 -178 c 0
 -76 -145 -50 -125 -27 -125 c 0
 -2 -125 12 -151 12 -190 c 0
 12 -202 26 -206 38 -206 c 0
 80 -206 100 -174 106 -126 c 0
 109 -99 114 -56 114 -22 c 0
 114 44 112 118 112 186 c 0
 112 234 112 277 110 313 c 0
 110 323 105 335 103 335 c 2
 67 331 l 2xda
 60 330 56 334 56 344 c 0
 56 358 61 362 70 363 c 0xba
EndSplineSet
EndChar

StartChar: k
Encoding: 107 107 10
Width: 479
VWidth: 0
Flags: W
HStem: -1 33<27.1003 78.3883 166.787 214.751 239.009 267.322 392.226 455.885> 157 45<165.025 194.11> 338 26<338.951 396.991> 604 31<23.0065 67.875> 607 46<28 76.9026>
VStem: 83 82<32.2077 156.998 202.009 597.475>
LayerCount: 3
Fore
SplineSet
250 364 m 2xec
 375 364 l 2
 385 364 397 361 397 351 c 0
 397 340 392 340 384 338 c 0
 377 336 368 335 361 333 c 0
 342 328 345 329 328 318 c 0
 304 302 247 246 232 230 c 0
 225 223 222 219 222 215 c 0
 222 209 229 204 239 194 c 0
 289 147 352 77 412 32 c 1
 433 31 l 2
 446 30 456 29 456 13 c 0
 456 -2 446 -2 441 -2 c 0
 413 -2 345 2 257 2 c 0
 244 2 239 4 239 16 c 0
 239 25 242 32 252 32 c 2
 263 32 l 2
 272 32 274 40 267 50 c 0
 253 69 239 83 223 103 c 0
 200 131 177 157 174 157 c 0
 165 157 165 154 165 125 c 2
 165 56 l 2
 165 49 173 31 184 31 c 0
 193 31 215 30 215 22 c 0
 215 4 213 1 189 1 c 0
 135 1 77 0 38 -1 c 0
 30 -1 26 9 27 17 c 0
 29 30 40 32 49 32 c 2
 71 32 l 2
 82 32 83 102 83 149 c 2
 83 181 l 2
 83 285 84 389 84 493 c 0
 84 564 81 587 77 598 c 0
 75 605 68 607 68 607 c 1
 60 607 l 1xec
 54 606 39 604 36 604 c 0
 32 604 23 608 23 619 c 0
 23 628 25 633 42 635 c 0xf4
 80 640 147 653 151 653 c 0
 164 653 168 645 168 640 c 0
 168 523 163 444 163 226 c 0
 163 215 163 202 167 202 c 0
 180 202 250 282 261 296 c 0
 264 299 271 311 271 318 c 0
 271 336 230 339 230 352 c 0
 230 363 238 364 250 364 c 2xec
EndSplineSet
EndChar

StartChar: l
Encoding: 108 108 11
Width: 290
VWidth: -1
Flags: W
LayerCount: 3
Fore
SplineSet
109 609 m 0xd0
 105 609 77 605 68 605 c 0
 63 605 56 607 56 622 c 0
 56 636 64 640 80 640 c 0
 106 640 173 653 190 653 c 0
 200 653 203 646 203 637 c 0xd0
 203 607 195 587 195 132 c 2
 195 97 l 2
 195 68 196 34 201 34 c 2
 249 34 l 2
 263 34 269 33 269 16 c 2
 269 10 l 2
 269 0 255 -3 245 -3 c 0
 231 -3 187 0 152 0 c 2
 53 -0 l 2
 39 0 36 4 36 18 c 0
 36 34 43 34 59 34 c 2
 101 33 l 2
 105 33 111 42 111 84 c 0xe0
 112 210 118 486 118 564 c 0
 118 570 116 609 109 609 c 0xd0
EndSplineSet
EndChar

StartChar: m
Encoding: 109 109 12
Width: 722
VWidth: 1
Flags: W
LayerCount: 3
Fore
SplineSet
269 21 m 0xbc
 269 38 285 39 294 39 c 2
 307 39 l 1
 312 40 l 2
 322 42 322 185 322 209 c 0
 322 257 319 282 314 308 c 0
 308 339 298 351 262 351 c 0xbc
 234 351 208 328 194 310 c 0
 180 292 170 237 170 198 c 0
 170 188 170 42 179 40 c 0
 186 38 202 38 211 37 c 0
 224 36 226 28 226 21 c 0
 226 7 217 0 211 0 c 2
 123 0 l 2
 95 0 69 -1 46 -1 c 0
 30 -1 28 5 28 24 c 0
 28 39 37 39 48 39 c 2
 79 39 l 2
 84 39 85 68 85 89 c 0
 85 135 86 175 86 229 c 2
 86 267 l 2
 86 294 86 322 77 329 c 0
 72 333 58 333 47 333 c 0xdc
 32 333 31 336 31 350 c 0
 31 360 36 365 45 366 c 0
 90 371 140 384 155 384 c 0
 164 384 170 376 170 360 c 2
 171 324 l 1
 183 324 218 384 292 384 c 0
 365 384 394 326 400 326 c 0
 406 326 442 384 524 384 c 0
 604 384 642 338 642 259 c 0
 642 213 641 173 641 113 c 2
 641 64 l 2
 641 41 650 38 653 38 c 2
 681 38 l 2
 692 38 700 36 700 23 c 0
 700 6 697 -3 684 -3 c 0
 672 -3 615 0 602 0 c 2
 523 -1 l 2
 510 -1 501 2 501 18 c 0
 501 31 503 37 515 37 c 2
 548 37 l 2
 551 37 555 56 555 80 c 2
 554 277 l 2
 554 315 536 351 494 351 c 0
 458 351 433 326 415 307 c 1
 406 287 405 219 405 150 c 2
 405 99 l 2
 405 73 406 40 413 40 c 0
 419 40 430 39 438 38 c 0
 454 36 463 37 463 23 c 0
 463 16 463 11 459 7 c 0
 453 1 457 1 413 1 c 0
 370 1 306 -1 293 -1 c 0
 274 -1 269 2 269 21 c 0xbc
EndSplineSet
EndChar

StartChar: n
Encoding: 110 110 13
Width: 298
VWidth: 0
Flags: W
HStem: 220 168<95.6758 208.324>
VStem: 68 168<247.676 360.324>
LayerCount: 3
Fore
SplineSet
68 304 m 0
 68 350 106 388 152 388 c 0
 198 388 236 350 236 304 c 0
 236 258 198 220 152 220 c 0
 106 220 68 258 68 304 c 0
EndSplineSet
Validated: 1
EndChar

StartChar: o
Encoding: 111 111 14
Width: 298
VWidth: 0
Flags: W
HStem: 220 168<95.6758 208.324>
VStem: 68 168<247.676 360.324>
LayerCount: 3
Fore
SplineSet
68 304 m 0
 68 350 106 388 152 388 c 0
 198 388 236 350 236 304 c 0
 236 258 198 220 152 220 c 0
 106 220 68 258 68 304 c 0
EndSplineSet
Validated: 1
EndChar

StartChar: p
Encoding: 112 112 15
Width: 298
VWidth: 0
Flags: W
HStem: 220 168<95.6758 208.324>
VStem: 68 168<247.676 360.324>
LayerCount: 3
Fore
SplineSet
68 304 m 0
 68 350 106 388 152 388 c 0
 198 388 236 350 236 304 c 0
 236 258 198 220 152 220 c 0
 106 220 68 258 68 304 c 0
EndSplineSet
Validated: 1
EndChar

StartChar: q
Encoding: 113 113 16
Width: 298
VWidth: 0
Flags: W
HStem: 220 168<95.6758 208.324>
VStem: 68 168<247.676 360.324>
LayerCount: 3
Fore
SplineSet
68 304 m 0
 68 350 106 388 152 388 c 0
 198 388 236 350 236 304 c 0
 236 258 198 220 152 220 c 0
 106 220 68 258 68 304 c 0
EndSplineSet
Validated: 1
EndChar

StartChar: r
Encoding: 114 114 17
Width: 298
VWidth: 0
Flags: W
HStem: 220 168<95.6758 208.324>
VStem: 68 168<247.676 360.324>
LayerCount: 3
Fore
SplineSet
68 304 m 0
 68 350 106 388 152 388 c 0
 198 388 236 350 236 304 c 0
 236 258 198 220 152 220 c 0
 106 220 68 258 68 304 c 0
EndSplineSet
Validated: 1
EndChar

StartChar: s
Encoding: 115 115 18
Width: 298
VWidth: 0
Flags: W
HStem: 220 168<95.6758 208.324>
VStem: 68 168<247.676 360.324>
LayerCount: 3
Fore
SplineSet
68 304 m 0
 68 350 106 388 152 388 c 0
 198 388 236 350 236 304 c 0
 236 258 198 220 152 220 c 0
 106 220 68 258 68 304 c 0
EndSplineSet
Validated: 1
EndChar

StartChar: t
Encoding: 116 116 19
Width: 298
VWidth: 0
Flags: W
HStem: 220 168<95.6758 208.324>
VStem: 68 168<247.676 360.324>
LayerCount: 3
Fore
SplineSet
68 304 m 0
 68 350 106 388 152 388 c 0
 198 388 236 350 236 304 c 0
 236 258 198 220 152 220 c 0
 106 220 68 258 68 304 c 0
EndSplineSet
Validated: 1
EndChar

StartChar: u
Encoding: 117 117 20
Width: 298
VWidth: 0
Flags: W
HStem: 220 168<95.6758 208.324>
VStem: 68 168<247.676 360.324>
LayerCount: 3
Fore
SplineSet
68 304 m 0
 68 350 106 388 152 388 c 0
 198 388 236 350 236 304 c 0
 236 258 198 220 152 220 c 0
 106 220 68 258 68 304 c 0
EndSplineSet
Validated: 1
EndChar

StartChar: v
Encoding: 118 118 21
Width: 298
VWidth: 0
Flags: W
HStem: 220 168<95.6758 208.324>
VStem: 68 168<247.676 360.324>
LayerCount: 3
Fore
SplineSet
68 304 m 0
 68 350 106 388 152 388 c 0
 198 388 236 350 236 304 c 0
 236 258 198 220 152 220 c 0
 106 220 68 258 68 304 c 0
EndSplineSet
Validated: 1
EndChar

StartChar: w
Encoding: 119 119 22
Width: 298
VWidth: 0
Flags: W
HStem: 220 168<95.6758 208.324>
VStem: 68 168<247.676 360.324>
LayerCount: 3
Fore
SplineSet
68 304 m 0
 68 350 106 388 152 388 c 0
 198 388 236 350 236 304 c 0
 236 258 198 220 152 220 c 0
 106 220 68 258 68 304 c 0
EndSplineSet
Validated: 1
EndChar

StartChar: x
Encoding: 120 120 23
Width: 298
VWidth: 0
Flags: W
HStem: 220 168<95.6758 208.324>
VStem: 68 168<247.676 360.324>
LayerCount: 3
Fore
SplineSet
68 304 m 0
 68 350 106 388 152 388 c 0
 198 388 236 350 236 304 c 0
 236 258 198 220 152 220 c 0
 106 220 68 258 68 304 c 0
EndSplineSet
Validated: 1
EndChar

StartChar: y
Encoding: 121 121 24
Width: 298
VWidth: 0
Flags: W
HStem: 220 168<95.6758 208.324>
VStem: 68 168<247.676 360.324>
LayerCount: 3
Fore
SplineSet
68 304 m 0
 68 350 106 388 152 388 c 0
 198 388 236 350 236 304 c 0
 236 258 198 220 152 220 c 0
 106 220 68 258 68 304 c 0
EndSplineSet
Validated: 1
EndChar

StartChar: z
Encoding: 122 122 25
Width: 298
VWidth: 0
Flags: W
HStem: 220 168<95.6758 208.324>
VStem: 68 168<247.676 360.324>
LayerCount: 3
Fore
SplineSet
68 304 m 0
 68 350 106 388 152 388 c 0
 198 388 236 350 236 304 c 0
 236 258 198 220 152 220 c 0
 106 220 68 258 68 304 c 0
EndSplineSet
Validated: 1
EndChar

StartChar: zero
Encoding: 48 48 53
Width: 298
VWidth: 0
Flags: W
HStem: 220 168<95.6758 208.324>
VStem: 68 168<247.676 360.324>
LayerCount: 3
Fore
SplineSet
68 304 m 0
 68 350 106 388 152 388 c 0
 198 388 236 350 236 304 c 0
 236 258 198 220 152 220 c 0
 106 220 68 258 68 304 c 0
EndSplineSet
EndChar

StartChar: one
Encoding: 49 49 54
Width: 298
VWidth: 0
Flags: W
HStem: 220 168<95.6758 208.324>
VStem: 68 168<247.676 360.324>
LayerCount: 3
Fore
SplineSet
68 304 m 0
 68 350 106 388 152 388 c 0
 198 388 236 350 236 304 c 0
 236 258 198 220 152 220 c 0
 106 220 68 258 68 304 c 0
EndSplineSet
EndChar

StartChar: two
Encoding: 50 50 55
Width: 298
VWidth: 0
Flags: W
HStem: 220 168<95.6758 208.324>
VStem: 68 168<247.676 360.324>
LayerCount: 3
Fore
SplineSet
68 304 m 0
 68 350 106 388 152 388 c 0
 198 388 236 350 236 304 c 0
 236 258 198 220 152 220 c 0
 106 220 68 258 68 304 c 0
EndSplineSet
EndChar

StartChar: three
Encoding: 51 51 56
Width: 298
VWidth: 0
Flags: W
HStem: 220 168<95.6758 208.324>
VStem: 68 168<247.676 360.324>
LayerCount: 3
Fore
SplineSet
68 304 m 0
 68 350 106 388 152 388 c 0
 198 388 236 350 236 304 c 0
 236 258 198 220 152 220 c 0
 106 220 68 258 68 304 c 0
EndSplineSet
EndChar

StartChar: four
Encoding: 52 52 57
Width: 298
VWidth: 0
Flags: W
HStem: 220 168<95.6758 208.324>
VStem: 68 168<247.676 360.324>
LayerCount: 3
Fore
SplineSet
68 304 m 0
 68 350 106 388 152 388 c 0
 198 388 236 350 236 304 c 0
 236 258 198 220 152 220 c 0
 106 220 68 258 68 304 c 0
EndSplineSet
EndChar

StartChar: five
Encoding: 53 53 58
Width: 298
VWidth: 0
Flags: W
HStem: 220 168<95.6758 208.324>
VStem: 68 168<247.676 360.324>
LayerCount: 3
Fore
SplineSet
68 304 m 0
 68 350 106 388 152 388 c 0
 198 388 236 350 236 304 c 0
 236 258 198 220 152 220 c 0
 106 220 68 258 68 304 c 0
EndSplineSet
EndChar

StartChar: six
Encoding: 54 54 59
Width: 298
VWidth: 0
Flags: W
HStem: 220 168<95.6758 208.324>
VStem: 68 168<247.676 360.324>
LayerCount: 3
Fore
SplineSet
68 304 m 0
 68 350 106 388 152 388 c 0
 198 388 236 350 236 304 c 0
 236 258 198 220 152 220 c 0
 106 220 68 258 68 304 c 0
EndSplineSet
EndChar

StartChar: seven
Encoding: 55 55 60
Width: 298
VWidth: 0
Flags: W
HStem: 220 168<95.6758 208.324>
VStem: 68 168<247.676 360.324>
LayerCount: 3
Fore
SplineSet
68 304 m 0
 68 350 106 388 152 388 c 0
 198 388 236 350 236 304 c 0
 236 258 198 220 152 220 c 0
 106 220 68 258 68 304 c 0
EndSplineSet
EndChar

StartChar: eight
Encoding: 56 56 61
Width: 298
VWidth: 0
Flags: W
HStem: 220 168<95.6758 208.324>
VStem: 68 168<247.676 360.324>
LayerCount: 3
Fore
SplineSet
68 304 m 0
 68 350 106 388 152 388 c 0
 198 388 236 350 236 304 c 0
 236 258 198 220 152 220 c 0
 106 220 68 258 68 304 c 0
EndSplineSet
EndChar

StartChar: nine
Encoding: 57 57 62
Width: 298
VWidth: 0
Flags: W
HStem: 220 168<95.6758 208.324>
VStem: 68 168<247.676 360.324>
LayerCount: 3
Fore
SplineSet
68 304 m 0
 68 350 106 388 152 388 c 0
 198 388 236 350 236 304 c 0
 236 258 198 220 152 220 c 0
 106 220 68 258 68 304 c 0
EndSplineSet
EndChar
